# xmcd
#
# Track frame offsets:
#	150
#	17070
#	32535
#	46600
#	62512
#	74987
#	89770
#	107837
#	121360
#	133647
#	146870
#	161222
#	174982
#	189512
#	209845
#	224672
#	236445
#	252252
#	267482
#	280327
#
# Disc length: 3913 seconds
#
# Revision: 3
# Processed by: cddbd v1.5.2PL0 Copyright (c) Steve Scherf et al.
# Submitted via: EasyCDDAExtractor 12.0.1.1
#
DISCID=400f4714
DTITLE=Various Artist - SFestival Bar '96: Superdance Battito Bis
DYEAR=1996
DGENRE=Pop
TTITLE0=Boris Dlugosch - Keep Pushin' (Original Mix)
TTITLE1=Sandy B - Make The World Go Round (Deep Dish Around The World Rmx)
TTITLE2=Cheryl Lynn - Got To Be Real (Classic Paradise Mix)
TTITLE3=Mark Morrison - Crazy (Mark's Full On Vocal Mix)
TTITLE4=Maydle Myles - You Got Me Forever (The Forever Deep Mix)
TTITLE5=Babyra Soul - I Belong To You (Club Mix)
TTITLE6=Mr President - Coco Jamboo (Mousse T.'s Extended Club Mix)
TTITLE7=Reel 2 Real - Are You Ready For Some More? (Erik "More" Club Mix)
TTITLE8=J.J. Brothers Feat. Asher Senator - I Got The Vibe Shake It, Shake It 
TTITLE8=(Alex Party Mix)
TTITLE9=Molella and Asher Senator - See The Difference (Spaghetti Mix)
TTITLE10=Hysteric Ego - Want Love (Original Mix)
TTITLE11=Frank'O Moiraghi Feat. Amnesia - Baby Hold Me (Frank'O Moiraghi Train
TTITLE11=Mix)
TTITLE12=Zhi-Vago - Celebrate To Love (Club Mix)
TTITLE13=Robert Miles - Fable (Message Version)
TTITLE14=Raf By Picotto and Gigi D'Agostino - Angel's Simphony (Mediterranean Mi
TTITLE14=x)
TTITLE15=Karin T. - My Paradise (Wishing A Dreammix)
TTITLE16=Ice MC - Give Me The Light (Cold As Ice Mix)
TTITLE17=D.J. Dado - Metropolis (Club Mix)
TTITLE18=Datura - Mantra (Gaya Tri)
TTITLE19=Making Ends - Heartbeat
EXTD=
EXTT0=
EXTT1=
EXTT2=
EXTT3=
EXTT4=
EXTT5=
EXTT6=
EXTT7=
EXTT8=
EXTT9=
EXTT10=
EXTT11=
EXTT12=
EXTT13=
EXTT14=
EXTT15=
EXTT16=
EXTT17=
EXTT18=
EXTT19=
PLAYORDER=
